<svg width="32" height="32" viewBox="0 0 32 32" fill="none" xmlns="http://www.w3.org/2000/svg">
  <!-- Background circle -->
  <circle cx="16" cy="16" r="16" fill="#0A0A0A"/>
  
  <!-- Crescent moon shape -->
  <path d="M12 6C12 6 20 8 20 16C20 24 12 26 12 26C18 26 23 21 23 16C23 11 18 6 12 6Z" fill="#D4AF37"/>
  
  <!-- Subtle highlight -->
  <path d="M12 6C12 6 18 8 18 14C18 20 12 22 12 22C16 22 19 19 19 16C19 13 16 10 12 6Z" fill="#F4D76F" opacity="0.6"/>
  
  <!-- Small star accents -->
  <circle cx="8" cy="10" r="0.8" fill="#D4AF37"/>
  <circle cx="25" cy="12" r="0.6" fill="#D4AF37"/>
  <circle cx="24" cy="22" r="0.7" fill="#D4AF37"/>
</svg>